<?xml version="1.0" encoding="UTF-8" standalone="no"?>
<!-- Created with Inkscape (http://www.inkscape.org/) -->

<svg
   width="740"
   height="890"
   viewBox="0 0 195.79166 235.47919"
   version="1.1"
   id="svg1"
   xml:space="preserve"
   xmlns:xlink="http://www.w3.org/1999/xlink"
   xmlns="http://www.w3.org/2000/svg"
   xmlns:svg="http://www.w3.org/2000/svg"><defs
     id="defs1" /><g
     id="layer1"
     transform="translate(-17.733932,-35.479242)"><path
       style="fill:#346239;fill-opacity:1;stroke:none;stroke-width:2.80154;stroke-linecap:butt;stroke-linejoin:miter;stroke-opacity:1"
       d="M 204.6031,78.945631 178.88116,56.529629 149.6645,81.848154 83.654102,133.15124 c 0,0 -25.780438,-16.5989 -38.381019,-16.99526 -12.600581,-0.39636 -18.651718,10.04769 -18.651718,10.04769 0,0 -2.631286,71.70087 0.06211,79.07225 2.693397,7.37139 173.843372,7.00743 177.614132,1.66954 3.77075,-5.3379 0.30549,-127.999829 0.30549,-127.999829 z"
       id="path1" /><path
       id="path2"
       style="fill:#fefffe;fill-opacity:1;stroke:none;stroke-width:0;stroke-linecap:butt;stroke-linejoin:miter;stroke-opacity:1"
       d="m 178.68413,57.025451 -23.8721,21.436159 13.53914,-4.008607 4.09764,4.357243 6.23532,-8.016504 6.23533,8.016504 4.09763,-4.357243 13.53984,4.008607 z" /><path
       style="fill:#e6e7e6;fill-opacity:1;stroke:none;stroke-width:0;stroke-linecap:butt;stroke-linejoin:miter;stroke-opacity:1"
       d="M 202.55686,78.461581 178.6843,57.025709 v 13.767758 l 6.23537,8.016661 4.09753,-4.356884 z"
       id="path2-5" /><path
       style="fill:none;fill-opacity:1;stroke:#808080;stroke-width:4;stroke-linecap:butt;stroke-linejoin:miter;stroke-opacity:1"
       d="M 204.6031,78.945631 178.88116,56.529629 149.6645,81.848154 83.654102,133.15124 c 0,0 -25.780438,-16.5989 -38.381019,-16.99526 -12.600581,-0.39636 -18.651718,10.04769 -18.651718,10.04769 l 0.248902,81.12697 177.427343,-0.38518 z"
       id="path1-1" /><path
       id="path9-4-6"
       style="fill:#a2b86a;fill-opacity:1;stroke:none;stroke-width:5;stroke-linecap:butt;stroke-linejoin:miter;stroke-dasharray:none;stroke-opacity:1"
       d="m 115.53125,177.64818 v 0.19734 H 60.504281 c -4.835971,0.92677 -8.824124,2.54151 -11.964382,4.84449 -0.523374,0.38383 -1.023091,0.78661 -1.499374,1.20866 -0.476314,0.4221 -0.929145,0.86366 -1.358346,1.32401 l -18.049885,21.85208 c 5.284138,11.5214 12.553806,13.89537 19.936264,15.7492 l 67.962692,0.13776 v -0.19734 l 67.9627,-0.13776 c 7.38246,-1.85384 14.65213,-4.22781 19.93626,-15.74921 l -18.04988,-21.85207 c -0.4292,-0.46035 -0.88202,-0.90191 -1.35834,-1.32402 -0.47628,-0.42205 -0.97601,-0.82482 -1.49938,-1.20865 -3.14026,-2.30298 -7.12841,-3.91772 -11.96438,-4.84449 z" /><path
       style="fill:#79a33c;fill-opacity:1;stroke:none;stroke-width:0.264583px;stroke-linecap:butt;stroke-linejoin:miter;stroke-opacity:1"
       d="m 181.17887,191.40143 h -69.57414 c -14.653096,0 -17.735816,11.9043 1.34624,11.9043 h 35.94788 l 8.71742,18.84632 h 25.75604 l -12.15157,-18.22734 h 18.6236 z"
       id="path17" /><g
       id="g12"
       style="stroke-width:0.945349"
       transform="matrix(1.057771,0,0,1.057847,4.0938159,10.085065)"><path
         id="path10-7"
         style="fill:none;stroke:#efe3b7;stroke-width:2.83604;stroke-linecap:butt;stroke-linejoin:miter;stroke-dasharray:none;stroke-opacity:1"
         d="M 175.92799,171.40131 H 34.77389" /><path
         id="path10-7-9-9"
         style="fill:none;stroke:#efe3b7;stroke-width:2.83604;stroke-linecap:butt;stroke-linejoin:miter;stroke-dasharray:none;stroke-opacity:1"
         d="m 68.973269,186.43491 -46.368804,0" /><path
         style="fill:none;stroke:#efe3b7;stroke-width:2.83604;stroke-linecap:butt;stroke-linejoin:miter;stroke-dasharray:none;stroke-opacity:1"
         d="M 175.92799,182.44429 H 135.53422"
         id="path10-2" /><path
         style="fill:none;stroke:#efe3b7;stroke-width:5.67209;stroke-linecap:butt;stroke-linejoin:miter;stroke-dasharray:none;stroke-opacity:1"
         d="M 84.100825,158.5867 61.113573,201.17547"
         id="path11" /><path
         style="fill:none;stroke:#efe3b7;stroke-width:5.67209;stroke-linecap:butt;stroke-linejoin:miter;stroke-dasharray:none;stroke-opacity:1"
         d="m 123.97479,158.40015 20.16238,42.57046"
         id="path11-6" /><path
         style="fill:none;stroke:#efe3b7;stroke-width:2.83604;stroke-linecap:butt;stroke-linejoin:miter;stroke-dasharray:none;stroke-opacity:1"
         d="m 142.00993,158.45516 27.5921,42.46387"
         id="path12" /><path
         style="fill:none;stroke:#efe3b7;stroke-width:2.83604;stroke-linecap:butt;stroke-linejoin:miter;stroke-dasharray:none;stroke-opacity:1"
         d="m 157.37264,158.4 27.09202,34.26436"
         id="path12-3" /></g><path
       id="path9-4"
       style="fill:none;fill-opacity:1;stroke:#173f1c;stroke-width:5;stroke-linecap:butt;stroke-linejoin:miter;stroke-dasharray:none;stroke-opacity:1"
       d="m 203.43021,206.87741 -18.04988,-21.85207 c -3.11092,-3.3367 -7.69431,-7.37716 -14.8221,-7.37716 l -110.053949,0.19734 c -7.897189,0 -12.261946,4.6312 -14.822102,7.37716 l -18.049885,21.85208" /><g
       id="g16"
       transform="translate(280.35242,28.732176)"><path
         id="path15-4-8"
         style="fill:#ffffff;stroke-width:3.00001;stroke-linecap:round;stroke-linejoin:round;paint-order:markers stroke fill"
         d="m -225.29687,129.35937 c -13.429,0 -24.46485,11.03584 -24.46485,24.46485 0,4.63873 1.6498,8.43413 3.28516,11.84375 1.69682,3.53777 3.78195,6.98931 5.8164,10.10742 4.0752,6.24585 8.10389,11.2988 8.10547,11.30078 1.73051,2.17274 4.48014,3.49805 7.25782,3.49805 2.77675,0 5.52524,-1.32464 7.25585,-3.4961 0,0 4.03143,-5.05564 8.10743,-11.30273 2.03445,-3.11811 4.11958,-6.56965 5.8164,-10.10742 1.63536,-3.40962 3.28516,-7.20502 3.28516,-11.84375 0,-13.429 -11.03583,-24.46484 -24.46484,-24.46485 z" /><path
         id="path15-4"
         style="fill:#153f18;fill-opacity:1;stroke-width:3.00001;stroke-linecap:round;stroke-linejoin:round;paint-order:markers stroke fill"
         d="m -225.29687,133.3125 c -11.2656,0 -20.51172,9.24611 -20.51172,20.51172 0,3.70355 1.31396,6.83531 2.89648,10.13476 1.58252,3.29946 3.58388,6.62371 5.5625,9.65625 3.95725,6.06509 7.88867,10.99805 7.88867,10.99805 a 5.3234164,5.3234164 0 0 0 8.32813,0 c 0,0 3.93142,-4.93295 7.88867,-10.99805 1.97862,-3.03254 3.97998,-6.35679 5.5625,-9.65625 1.58252,-3.29945 2.89648,-6.43121 2.89648,-10.13476 0,-11.2656 -9.24611,-20.51172 -20.51171,-20.51172 z" /><path
         id="path15"
         style="fill:#79a33c;fill-opacity:1;stroke-width:3.00001;stroke-linecap:round;stroke-linejoin:round;paint-order:markers stroke fill"
         d="m -210.10785,153.82491 c 0,8.3889 -15.18945,27.4731 -15.18945,27.4731 0,0 -15.18946,-19.0842 -15.18946,-27.4731 0,-8.38891 6.80055,-15.18946 15.18946,-15.18946 8.3889,0 15.18945,6.80056 15.18945,15.18946 z" /><circle
         style="fill:#153f1a;fill-opacity:1;stroke:none;stroke-width:3.00001;stroke-linecap:round;stroke-linejoin:round;stroke-dasharray:none;stroke-opacity:1;paint-order:markers stroke fill"
         id="path16"
         cx="-225.23125"
         cy="153.42867"
         r="8.168787" /></g><g
       id="g13"
       transform="translate(-182.49098,162.34373)"><path
         id="path5"
         style="fill:#79a33c;fill-opacity:1;stroke:#143c17;stroke-width:6;stroke-linecap:butt;stroke-linejoin:miter;stroke-opacity:1"
         d="m 298.121,-107.06778 c -13.67563,0.36594 -22.90458,8.246925 -27.68668,23.510705 -21.5294,-2.025261 -34.42943,19.063561 -25.09562,35.001481 -21.70551,19.680249 -1.3644,57.6688692 30.24673,42.9270992 6.45514,5.28329004 13.96712,8.585 22.53557,8.585 8.56846,0 16.07992,-3.30170996 22.53506,-8.585 31.61112,14.74177 51.95224,-23.2468502 30.24673,-42.9270992 9.33381,-15.93792 -3.56622,-37.026742 -25.09562,-35.001481 -4.7821,-15.26378 -14.01053,-23.144765 -27.68617,-23.510705 z" /><path
         style="fill:#153f18;fill-opacity:1;stroke:none;stroke-width:0.264583px;stroke-linecap:butt;stroke-linejoin:miter;stroke-opacity:1"
         d="m 295.23016,-13.204945 c -15.97544,0.32649 -34.11951,-14.47083 -32.97356,-28.801404 11.86187,-2.699912 28.23035,8.364784 32.97356,28.801404 z"
         id="path8" /><path
         style="fill:#153f18;fill-opacity:1;stroke:none;stroke-width:0.264583px;stroke-linecap:butt;stroke-linejoin:miter;stroke-opacity:1"
         d="m 304.83862,-18.553715 c 15.22827,0.32649 29.90069,-13.59149 29.22172,-27.735268 -13.35622,-3.540476 -29.14833,12.248648 -29.22172,27.735268 z"
         id="path8-1" /><path
         style="fill:#153f18;fill-opacity:1;stroke:none;stroke-width:0.264583px;stroke-linecap:butt;stroke-linejoin:miter;stroke-opacity:1"
         d="m 300.28892,-45.47533 c 11.41876,-1.404075 22.55798,-13.385277 22.13773,-22.985877 -10.24099,-1.873557 -22.28047,11.734321 -22.13773,22.985877 z"
         id="path8-1-1" /><path
         id="path6"
         style="fill:#4a3115;fill-opacity:1;stroke:#4a3115;stroke-width:5;stroke-linecap:round;stroke-linejoin:round;stroke-dasharray:none;stroke-opacity:1"
         d="m 298.121,-79.738187 c 0,0 -8e-5,15.334144 -0.40389,34.937029 -2.53207,-1.118376 -20.23289,-19.865569 -18.73032,-17.920807 0.33409,-0.162196 19.21595,20.836789 18.64712,22.5499 -0.6823,29.94237 -2.31603,66.97885 -6.23761,76.15136 2.32957,-0.30409 4.5712,-0.34361 6.72465,-0.11937 2.15345,-0.22424 4.39457,-0.18472 6.72414,0.11937 -2.61141,-6.10804 -4.20864,-24.0647 -5.18557,-44.7964998 0.28634,-1.5019702 20.88484,-24.7628102 21.79475,-24.6328302 0,0 -14.78547,13.7581 -22.12751,20.68785 l -1.20581,-66.976002 z" /></g><text
       xml:space="preserve"
       style="font-size:42.2363px;line-height:1;font-family:sans-serif;text-align:center;text-anchor:middle;stroke-width:0.264583"
       x="111.26202"
       y="384.30011"
       id="text17-3-4"
       transform="scale(1.0347491,0.96641785)"><tspan
         id="tspan17-5-2"
         style="font-style:normal;font-variant:normal;font-weight:normal;font-stretch:normal;font-size:42.2363px;line-height:1;font-family:'Tw Cen MT Condensed Extra Bold';-inkscape-font-specification:'Tw Cen MT Condensed Extra Bold, ';fill:#173f1c;fill-opacity:1;stroke:none;stroke-width:0.264583;stroke-opacity:1"
         x="111.26202"
         y="384.30011">ÉCHIROLLES TREE</tspan></text><text
       xml:space="preserve"
       style="font-style:normal;font-variant:normal;font-weight:bold;font-stretch:normal;font-size:31.75px;line-height:1;font-family:'Miriam CLM';-inkscape-font-specification:'Miriam CLM Bold';text-align:center;text-anchor:middle;stroke-width:0.264583"
       x="111.25454"
       y="426.27777"
       id="text17-3-4-7-5"
       transform="scale(1.0347491,0.96641785)"><tspan
         id="tspan17-5-2-2-7"
         style="font-style:normal;font-variant:normal;font-weight:bold;font-stretch:normal;font-size:31.75px;line-height:1;font-family:'Miriam CLM';-inkscape-font-specification:'Miriam CLM Bold';fill:#173f1c;fill-opacity:1;stroke:none;stroke-width:0.264583;stroke-opacity:1"
         x="111.25454"
         y="426.27777">ÉCHIROLLES TREE</tspan></text><text
       xml:space="preserve"
       style="font-style:normal;font-variant:normal;font-weight:normal;font-stretch:normal;font-size:56.4444px;line-height:1;font-family:'Tw Cen MT Condensed';-inkscape-font-specification:'Tw Cen MT Condensed, ';text-align:center;text-anchor:middle;stroke-width:0.264583"
       x="110.63046"
       y="482.1611"
       id="text17-3-7-0"
       transform="scale(1.0347491,0.96641785)"><tspan
         id="tspan17-5-6-0"
         style="font-style:normal;font-variant:normal;font-weight:normal;font-stretch:normal;font-size:56.4444px;line-height:1;font-family:'Tw Cen MT Condensed';-inkscape-font-specification:'Tw Cen MT Condensed, ';fill:#173f1c;fill-opacity:1;stroke:none;stroke-width:0.264583;stroke-opacity:1"
         x="110.63046"
         y="482.1611">ÉCHIROLLES TREE</tspan></text><path
       style="font-size:44.6869px;line-height:1;font-family:'Tw Cen MT Condensed';-inkscape-font-specification:'Tw Cen MT Condensed, ';text-align:center;text-anchor:middle;fill:#173f1c;stroke-width:0.20947"
       d="M 33.83006,231.74361 H 23.771143 v -27.7984 h 9.884358 v 3.18569 h -6.174996 v 8.79337 h 5.716781 v 3.16387 h -5.716781 v 9.57888 h 6.349555 z m -0.436396,-36.02445 -4.82217,6.08771 h -3.229327 l 2.90203,-6.08771 z m 16.321192,35.52259 q -1.680122,0.80733 -3.360245,0.80733 -3.360246,0 -5.82588,-2.59655 -2.443815,-2.59655 -2.443815,-10.84443 0,-8.94611 2.443815,-12.04451 2.465634,-3.09841 5.956799,-3.09841 1.309186,0 3.229326,0.43639 v 3.40389 q -1.265547,-0.50186 -2.378355,-0.50186 -2.181978,0 -3.731182,2.22562 -1.549204,2.2038 -1.549204,8.72791 0,3.88392 0.327297,6.08772 0.349116,2.18198 1.571024,3.49116 1.221907,1.28737 3.076588,1.28737 1.090989,0 2.683832,-0.67641 z m 4.822171,-27.29654 h 3.753002 v 10.82261 h 5.78224 v -10.82261 h 3.753002 v 27.7984 h -3.753002 v -13.81192 h -5.78224 v 13.81192 h -3.753002 z m 19.179581,0 h 3.753002 v 27.7984 h -3.753002 z m 21.928875,27.7984 h -3.88392 l -4.363955,-13.04823 h -0.327297 v 13.04823 h -3.753002 v -27.7984 h 5.193107 q 6.349555,0 6.349555,7.11325 0,3.22933 -0.93825,4.86581 -0.938251,1.63648 -3.054769,2.46563 z m -8.575172,-15.60114 q 2.181978,-0.0436 3.142048,-1.02553 0.98189,-1.00371 0.98189,-3.62209 0,-2.50927 -0.894611,-3.57844 -0.872791,-1.06917 -3.011129,-1.06917 h -0.218198 z m 12.044516,1.61466 q 0,-9.05521 1.767403,-11.71722 1.78922,-2.66201 5.86952,-2.66201 4.66943,0 6.19682,2.98931 1.5492,2.96749 1.5492,10.71351 0,6.93869 -0.69823,9.62252 -0.67642,2.68383 -2.37836,3.94938 -1.68012,1.26554 -4.58215,1.26554 -2.98931,0 -4.58216,-1.15644 -1.59284,-1.17827 -2.378351,-3.79664 -0.763692,-2.61838 -0.763692,-9.20795 z m 11.433563,0.2182 q 0,-7.92058 -0.93825,-9.77526 -0.91643,-1.8765 -2.77111,-1.8765 -2.18198,0 -2.98931,2.24743 -0.80733,2.22562 -0.80733,7.52783 v 1.52738 q 0,5.91316 0.65459,8.64063 0.65459,2.70566 3.14205,2.70566 1.52738,0 2.61837,-1.52739 1.09099,-1.52738 1.09099,-8.44425 z m 19.22322,13.76828 H 119.7127 v -27.7984 h 3.753 v 24.67817 h 6.30591 z m 14.4447,0 h -10.05892 v -27.7984 h 3.753 v 24.67817 h 6.30592 z m 14.53197,0 h -10.05892 v -27.7984 h 9.88436 v 3.18569 h -6.17499 v 8.79337 h 5.71678 v 3.16387 h -5.71678 v 9.57888 h 6.34955 z m 13.4628,-24.21995 q -1.83286,-0.98189 -3.29478,-0.98189 -1.46193,0 -2.50928,1.04734 -1.02553,1.04735 -1.02553,2.5311 0,1.04735 0.61096,2.24744 0.61095,1.17826 2.77111,3.79664 2.18198,2.59655 3.31661,4.51669 1.15644,1.92014 1.15644,4.40759 0,3.09841 -1.8765,5.04037 -1.85468,1.92014 -4.86581,1.92014 -1.6583,0 -4.05847,-0.98189 v -3.33842 q 0.0654,0.0218 0.13091,0.0655 0.3273,0.24001 1.37465,0.74187 1.04735,0.48003 2.05106,0.48003 1.63648,0 2.68383,-1.09098 1.06917,-1.09099 1.06917,-2.79294 0,-1.17826 -0.54549,-2.18197 -0.52368,-1.00371 -1.94196,-2.72748 l -2.50928,-3.07658 q -1.46192,-1.78923 -2.16016,-3.27297 -0.69823,-1.48374 -0.69823,-3.5348 0,-3.03295 1.7674,-4.93127 1.7674,-1.89832 4.58216,-1.89832 1.96378,0 3.97119,0.98189 z m 24.11085,-0.39276 h -4.25485 v 24.61271 h -3.753 V 207.1309 h -4.23304 v -3.18569 h 12.24089 z m 16.08117,24.61271 h -3.88392 l -4.36395,-13.04823 h -0.3273 v 13.04823 h -3.753 v -27.7984 h 5.19311 q 6.34955,0 6.34955,7.11325 0,3.22933 -0.93825,4.86581 -0.93825,1.63648 -3.05477,2.46563 z m -8.57517,-15.60114 q 2.18198,-0.0436 3.14205,-1.02553 0.98189,-1.00371 0.98189,-3.62209 0,-2.50927 -0.89461,-3.57844 -0.87279,-1.06917 -3.01113,-1.06917 h -0.2182 z m 22.71439,15.60114 h -10.05891 v -27.7984 h 9.88436 v 3.18569 h -6.175 v 8.79337 h 5.71678 v 3.16387 h -5.71678 v 9.57888 h 6.34955 z m 14.44469,0 h -10.05892 v -27.7984 h 9.88436 v 3.18569 h -6.17499 v 8.79337 h 5.71678 v 3.16387 h -5.71678 v 9.57888 h 6.34955 z"
       id="text17-3-7-0-8"
       transform="scale(0.87347466,1.1448529)"
       aria-label="ÉCHIROLLES TREE" /><rect
       style="fill:none;stroke:#4c3417;stroke-width:5.99999;stroke-linejoin:round;stroke-opacity:1;paint-order:markers stroke fill"
       id="rect1"
       width="179.20834"
       height="179.20834"
       x="26.025599"
       y="43.696384"
       ry="24.096224"
       rx="24.096226" /><path
       id="rect8-8"
       style="fill:none;fill-opacity:1;stroke:#143c17;stroke-width:6;stroke-linecap:square;stroke-linejoin:round;paint-order:markers stroke fill;stroke-opacity:1"
       d="m 98.226461,188.56624 -20.171724,11.54682 h 3.705232 v 14.70873 H 115.3097 v -14.70873 h 3.70523 z" /><rect
       style="fill:#eadbb2;fill-opacity:1;stroke:none;stroke-width:4.88492;stroke-linecap:round;stroke-linejoin:round;paint-order:markers stroke fill"
       id="rect8"
       width="33.550129"
       height="14.708702"
       x="81.759796"
       y="200.11302" /><rect
       style="fill:#a2783e;fill-opacity:1;stroke:none;stroke-width:4.88492;stroke-linecap:round;stroke-linejoin:round;paint-order:markers stroke fill"
       id="rect7"
       width="7.4613018"
       height="8.0395393"
       x="87.368629"
       y="202.93497" /><rect
       style="fill:#a2783e;fill-opacity:1;stroke:none;stroke-width:4.88492;stroke-linecap:round;stroke-linejoin:round;paint-order:markers stroke fill"
       id="rect7-7"
       width="7.4613018"
       height="8.0395393"
       x="101.82811"
       y="202.93497" /><path
       style="fill:#a2783e;fill-opacity:1;stroke:none;stroke-width:4.88492;stroke-linecap:butt;stroke-linejoin:miter;stroke-opacity:1"
       d="m 78.054879,200.11301 20.17125,-11.54707 20.788741,11.54707 z"
       id="path9" /><path
       id="rect6-7"
       style="fill:none;fill-opacity:1;stroke:#173f1c;stroke-width:6;stroke-linecap:round;stroke-linejoin:round;paint-order:markers stroke fill;stroke-opacity:1"
       d="m 150.26478,145.98458 v 3.55932 h 1.482 v 48.72706 h 32.31995 V 149.5439 h 1.18127 v -3.55932 z" /><rect
       style="fill:#a2783e;fill-opacity:1;stroke:none;stroke-width:0;stroke-linecap:round;stroke-linejoin:round;paint-order:markers stroke fill"
       id="rect3"
       width="32.320232"
       height="48.726994"
       x="151.74651"
       y="149.54375" /><g
       id="g5"
       transform="matrix(1.00286,0,0,1.00286,-336.64641,21.697756)"><rect
         style="fill:#ead9b2;fill-opacity:1;stroke:none;stroke-width:0;stroke-linecap:round;stroke-linejoin:round;paint-order:markers stroke fill"
         id="rect4"
         width="7.1448112"
         height="7.9853773"
         x="493.96127"
         y="130.8835" /><rect
         style="fill:#ead9b2;fill-opacity:1;stroke:none;stroke-width:0;stroke-linecap:round;stroke-linejoin:round;paint-order:markers stroke fill"
         id="rect4-6"
         width="7.1448112"
         height="7.9853773"
         x="505.12213"
         y="130.8835" /><rect
         style="fill:#ead9b2;fill-opacity:1;stroke:none;stroke-width:0;stroke-linecap:round;stroke-linejoin:round;paint-order:markers stroke fill"
         id="rect4-7"
         width="7.1448112"
         height="7.9853773"
         x="493.96127"
         y="142.74483" /><rect
         style="fill:#ead9b2;fill-opacity:1;stroke:none;stroke-width:0;stroke-linecap:round;stroke-linejoin:round;paint-order:markers stroke fill"
         id="rect4-6-9"
         width="7.1448112"
         height="7.9853773"
         x="505.12213"
         y="142.74483" /><rect
         style="fill:#ead9b2;fill-opacity:1;stroke:none;stroke-width:0;stroke-linecap:round;stroke-linejoin:round;paint-order:markers stroke fill"
         id="rect4-7-2"
         width="7.1448112"
         height="7.9853773"
         x="493.96127"
         y="153.5788" /><rect
         style="fill:#ead9b2;fill-opacity:1;stroke:none;stroke-width:0;stroke-linecap:round;stroke-linejoin:round;paint-order:markers stroke fill"
         id="rect4-6-9-3"
         width="7.1448112"
         height="7.9853773"
         x="505.12213"
         y="153.5788" /></g><rect
       style="fill:#ead9b2;fill-opacity:1;stroke:none;stroke-width:0;stroke-linecap:round;stroke-linejoin:round;paint-order:markers stroke fill"
       id="rect5"
       width="9.1790075"
       height="10.115641"
       x="163.31715"
       y="188.15511" /><rect
       style="fill:#ead9b2;fill-opacity:1;stroke:none;stroke-width:0;stroke-linecap:round;stroke-linejoin:round;paint-order:markers stroke fill"
       id="rect6"
       width="34.983253"
       height="3.559207"
       x="150.26457"
       y="145.98453" /><path
       style="fill:none;fill-opacity:1;stroke:#808080;stroke-width:0;stroke-linecap:round;stroke-linejoin:round;paint-order:markers stroke fill"
       xlink:href="#rect6-8"
       id="path10"
       d="m 485.83594,123.93164 v 3.54883 h 34.88281 v -3.54883 z"
       transform="matrix(1.00286,0,0,1.00286,-336.96073,21.697756)" /></g></svg>
