<?xml version="1.0" encoding="UTF-8" standalone="no"?>
<!-- Created with Inkscape (http://www.inkscape.org/) -->

<svg
   width="740"
   height="890"
   viewBox="0 0 195.79166 235.47919"
   version="1.1"
   id="svg1"
   xml:space="preserve"
   inkscape:version="1.4.2 (f4327f4, 2025-05-13)"
   sodipodi:docname="every-tree-logo.svg"
   inkscape:export-filename="..\assets\every-tree-logo.png"
   inkscape:export-xdpi="37.75"
   inkscape:export-ydpi="37.75"
   xmlns:inkscape="http://www.inkscape.org/namespaces/inkscape"
   xmlns:sodipodi="http://sodipodi.sourceforge.net/DTD/sodipodi-0.dtd"
   xmlns="http://www.w3.org/2000/svg"
   xmlns:svg="http://www.w3.org/2000/svg"><sodipodi:namedview
     id="namedview1"
     pagecolor="#ffffff"
     bordercolor="#666666"
     borderopacity="1.0"
     inkscape:showpageshadow="2"
     inkscape:pageopacity="0.0"
     inkscape:pagecheckerboard="0"
     inkscape:deskcolor="#d1d1d1"
     inkscape:document-units="mm"
     showguides="true"
     inkscape:zoom="0.5007929"
     inkscape:cx="348.44743"
     inkscape:cy="839.66845"
     inkscape:window-width="1920"
     inkscape:window-height="991"
     inkscape:window-x="-9"
     inkscape:window-y="-9"
     inkscape:window-maximized="1"
     inkscape:current-layer="layer1"
     inkscape:export-bgcolor="#ffffff00" /><defs
     id="defs1" /><g
     inkscape:label="Calque 1"
     inkscape:groupmode="layer"
     id="layer1"
     transform="translate(-17.733932,-35.479242)"><path
       id="path9-4-6"
       style="fill:#a2b86a;fill-opacity:1;stroke:none;stroke-width:5;stroke-linecap:butt;stroke-linejoin:miter;stroke-dasharray:none;stroke-opacity:1"
       d="m 115.53125,177.64818 v 0.19734 H 60.504281 c -4.835971,0.92677 -8.824124,2.54151 -11.964382,4.84449 -0.523374,0.38383 -1.023091,0.78661 -1.499374,1.20866 -0.476314,0.4221 -0.929145,0.86366 -1.358346,1.32401 l -18.049885,21.85208 c 5.284138,11.5214 12.553806,13.89537 19.936264,15.7492 l 67.962692,0.13776 v -0.19734 l 67.9627,-0.13776 c 7.38246,-1.85384 14.65213,-4.22781 19.93626,-15.74921 l -18.04988,-21.85207 c -0.4292,-0.46035 -0.88202,-0.90191 -1.35834,-1.32402 -0.47628,-0.42205 -0.97601,-0.82482 -1.49938,-1.20865 -3.14026,-2.30298 -7.12841,-3.91772 -11.96438,-4.84449 z" /><path
       style="fill:#79a33c;fill-opacity:1;stroke:none;stroke-width:0.264583px;stroke-linecap:butt;stroke-linejoin:miter;stroke-opacity:1"
       d="m 181.17887,191.40143 h -69.57414 c -14.653096,0 -17.735816,11.9043 1.34624,11.9043 h 35.94788 l 8.71742,18.84632 h 25.75604 l -12.15157,-18.22734 h 18.6236 z"
       id="path17"
       sodipodi:nodetypes="ccccccccc" /><g
       id="g12"
       style="stroke-width:0.945349"
       transform="matrix(1.057771,0,0,1.057847,4.0938159,10.085065)"><path
         id="path10-7"
         style="fill:none;stroke:#efe3b7;stroke-width:2.83604;stroke-linecap:butt;stroke-linejoin:miter;stroke-dasharray:none;stroke-opacity:1"
         d="M 175.92799,171.40131 H 34.77389"
         sodipodi:nodetypes="cc" /><path
         id="path10-7-9"
         style="fill:none;stroke:#efe3b7;stroke-width:2.83604;stroke-linecap:butt;stroke-linejoin:miter;stroke-dasharray:none;stroke-opacity:1"
         d="M 105.35094,186.43491 H 22.604465 m 115.965035,0 h -33.21856 m 0,0 v 14.74056"
         sodipodi:nodetypes="cccccc" /><path
         style="fill:none;stroke:#efe3b7;stroke-width:2.83604;stroke-linecap:butt;stroke-linejoin:miter;stroke-dasharray:none;stroke-opacity:1"
         d="M 175.92799,182.44429 H 135.53422"
         id="path10-2"
         sodipodi:nodetypes="cc" /><path
         style="fill:none;stroke:#efe3b7;stroke-width:5.67209;stroke-linecap:butt;stroke-linejoin:miter;stroke-dasharray:none;stroke-opacity:1"
         d="M 84.100825,158.5867 61.113573,201.17547"
         id="path11"
         sodipodi:nodetypes="cc" /><path
         style="fill:none;stroke:#efe3b7;stroke-width:5.67209;stroke-linecap:butt;stroke-linejoin:miter;stroke-dasharray:none;stroke-opacity:1"
         d="m 123.97479,158.40015 20.16238,42.57046"
         id="path11-6"
         sodipodi:nodetypes="cc" /><path
         style="fill:none;stroke:#efe3b7;stroke-width:2.83604;stroke-linecap:butt;stroke-linejoin:miter;stroke-dasharray:none;stroke-opacity:1"
         d="m 142.00993,158.45516 27.5921,42.46387"
         id="path12"
         sodipodi:nodetypes="cc" /><path
         style="fill:none;stroke:#efe3b7;stroke-width:2.83604;stroke-linecap:butt;stroke-linejoin:miter;stroke-dasharray:none;stroke-opacity:1"
         d="m 157.37264,158.4 27.09202,34.26436"
         id="path12-3"
         sodipodi:nodetypes="cc" /></g><path
       id="path9-4"
       style="fill:none;fill-opacity:1;stroke:#173f1c;stroke-width:5;stroke-linecap:butt;stroke-linejoin:miter;stroke-dasharray:none;stroke-opacity:1"
       d="m 203.43021,206.87741 -18.04988,-21.85207 c -3.11092,-3.3367 -7.69431,-7.37716 -14.8221,-7.37716 l -110.053949,0.19734 c -7.897189,0 -12.261946,4.6312 -14.822102,7.37716 l -18.049885,21.85208"
       sodipodi:nodetypes="ccsscc" /><g
       id="g16"
       transform="translate(280.35242,28.732176)"><path
         id="path15-4-8"
         style="fill:#ffffff;stroke-width:3.00001;stroke-linecap:round;stroke-linejoin:round;paint-order:markers stroke fill"
         sodipodi:type="inkscape:offset"
         inkscape:radius="3.9538844"
         inkscape:original="M -225.29688 133.3125 C -236.56247 133.3125 -245.80859 142.55861 -245.80859 153.82422 C -245.80859 157.52777 -244.49463 160.65953 -242.91211 163.95898 C -241.32959 167.25844 -239.32823 170.58269 -237.34961 173.61523 C -233.39236 179.68032 -229.46094 184.61328 -229.46094 184.61328 A 5.3234164 5.3234164 0 0 0 -221.13281 184.61328 C -221.13281 184.61328 -217.20139 179.68033 -213.24414 173.61523 C -211.26552 170.58269 -209.26416 167.25844 -207.68164 163.95898 C -206.09912 160.65953 -204.78516 157.52777 -204.78516 153.82422 C -204.78516 142.55862 -214.03127 133.3125 -225.29688 133.3125 z "
         d="m -225.29687,129.35937 c -13.429,0 -24.46485,11.03584 -24.46485,24.46485 0,4.63873 1.6498,8.43413 3.28516,11.84375 1.69682,3.53777 3.78195,6.98931 5.8164,10.10742 4.0752,6.24585 8.10389,11.2988 8.10547,11.30078 1.73051,2.17274 4.48014,3.49805 7.25782,3.49805 2.77675,0 5.52524,-1.32464 7.25585,-3.4961 0,0 4.03143,-5.05564 8.10743,-11.30273 2.03445,-3.11811 4.11958,-6.56965 5.8164,-10.10742 1.63536,-3.40962 3.28516,-7.20502 3.28516,-11.84375 0,-13.429 -11.03583,-24.46484 -24.46484,-24.46485 z" /><path
         id="path15-4"
         style="fill:#153f18;fill-opacity:1;stroke-width:3.00001;stroke-linecap:round;stroke-linejoin:round;paint-order:markers stroke fill"
         sodipodi:type="inkscape:offset"
         inkscape:radius="5.3228841"
         inkscape:original="M -225.29688 138.63477 C -233.68578 138.63477 -240.48633 145.43531 -240.48633 153.82422 C -240.48633 162.21312 -225.29688 181.29883 -225.29688 181.29883 C -225.29687 181.29883 -210.10742 162.21312 -210.10742 153.82422 C -210.10742 145.43532 -216.90797 138.63477 -225.29688 138.63477 z "
         d="m -225.29687,133.3125 c -11.2656,0 -20.51172,9.24611 -20.51172,20.51172 0,3.70355 1.31396,6.83531 2.89648,10.13476 1.58252,3.29946 3.58388,6.62371 5.5625,9.65625 3.95725,6.06509 7.88867,10.99805 7.88867,10.99805 a 5.3234164,5.3234164 0 0 0 8.32813,0 c 0,0 3.93142,-4.93295 7.88867,-10.99805 1.97862,-3.03254 3.97998,-6.35679 5.5625,-9.65625 1.58252,-3.29945 2.89648,-6.43121 2.89648,-10.13476 0,-11.2656 -9.24611,-20.51172 -20.51171,-20.51172 z" /><path
         id="path15"
         style="fill:#79a33c;fill-opacity:1;stroke-width:3.00001;stroke-linecap:round;stroke-linejoin:round;paint-order:markers stroke fill"
         d="m -210.10785,153.82491 c 0,8.3889 -15.18945,27.4731 -15.18945,27.4731 0,0 -15.18946,-19.0842 -15.18946,-27.4731 0,-8.38891 6.80055,-15.18946 15.18946,-15.18946 8.3889,0 15.18945,6.80056 15.18945,15.18946 z"
         sodipodi:nodetypes="scsss" /><circle
         style="fill:#153f1a;fill-opacity:1;stroke:none;stroke-width:3.00001;stroke-linecap:round;stroke-linejoin:round;stroke-dasharray:none;stroke-opacity:1;paint-order:markers stroke fill"
         id="path16"
         cx="-225.23125"
         cy="153.42867"
         r="8.168787" /></g><rect
       style="fill:none;stroke:#4c3417;stroke-width:5.99999;stroke-linejoin:round;stroke-opacity:1;paint-order:markers stroke fill"
       id="rect1"
       width="179.20834"
       height="179.20834"
       x="26.025599"
       y="43.696384"
       ry="24.096224"
       rx="24.096226" /><g
       id="g13"
       transform="translate(-182.49098,162.34373)"><path
         id="path5"
         style="fill:#79a33c;fill-opacity:1;stroke:#143c17;stroke-width:6;stroke-linecap:butt;stroke-linejoin:miter;stroke-opacity:1"
         d="m 298.121,-107.06778 c -13.67563,0.36594 -22.90458,8.246925 -27.68668,23.510705 -21.5294,-2.025261 -34.42943,19.063561 -25.09562,35.001481 -21.70551,19.680249 -1.3644,57.6688692 30.24673,42.9270992 6.45514,5.28329004 13.96712,8.585 22.53557,8.585 8.56846,0 16.07992,-3.30170996 22.53506,-8.585 31.61112,14.74177 51.95224,-23.2468502 30.24673,-42.9270992 9.33381,-15.93792 -3.56622,-37.026742 -25.09562,-35.001481 -4.7821,-15.26378 -14.01053,-23.144765 -27.68617,-23.510705 z" /><path
         style="fill:#153f18;fill-opacity:1;stroke:none;stroke-width:0.264583px;stroke-linecap:butt;stroke-linejoin:miter;stroke-opacity:1"
         d="m 295.23016,-13.204945 c -15.97544,0.32649 -34.11951,-14.47083 -32.97356,-28.801404 11.86187,-2.699912 28.23035,8.364784 32.97356,28.801404 z"
         id="path8"
         sodipodi:nodetypes="ccc" /><path
         style="fill:#153f18;fill-opacity:1;stroke:none;stroke-width:0.264583px;stroke-linecap:butt;stroke-linejoin:miter;stroke-opacity:1"
         d="m 304.83862,-18.553715 c 15.22827,0.32649 29.90069,-13.59149 29.22172,-27.735268 -13.35622,-3.540476 -29.14833,12.248648 -29.22172,27.735268 z"
         id="path8-1"
         sodipodi:nodetypes="ccc" /><path
         style="fill:#153f18;fill-opacity:1;stroke:none;stroke-width:0.264583px;stroke-linecap:butt;stroke-linejoin:miter;stroke-opacity:1"
         d="m 300.28892,-45.47533 c 11.41876,-1.404075 22.55798,-13.385277 22.13773,-22.985877 -10.24099,-1.873557 -22.28047,11.734321 -22.13773,22.985877 z"
         id="path8-1-1"
         sodipodi:nodetypes="ccc"
         inkscape:transform-center-x="-8.2536301"
         inkscape:transform-center-y="14.368552" /><path
         id="path6"
         style="fill:#4a3115;fill-opacity:1;stroke:#4a3115;stroke-width:5;stroke-linecap:round;stroke-linejoin:round;stroke-dasharray:none;stroke-opacity:1"
         d="m 298.121,-79.738187 c 0,0 -8e-5,15.334144 -0.40389,34.937029 -2.53207,-1.118376 -20.23289,-19.865569 -18.73032,-17.920807 0.33409,-0.162196 19.21595,20.836789 18.64712,22.5499 -0.6823,29.94237 -2.31603,66.97885 -6.23761,76.15136 2.32957,-0.30409 4.5712,-0.34361 6.72465,-0.11937 2.15345,-0.22424 4.39457,-0.18472 6.72414,0.11937 -2.61141,-6.10804 -4.20864,-24.0647 -5.18557,-44.7964998 0.28634,-1.5019702 20.88484,-24.7628102 21.79475,-24.6328302 0,0 -14.78547,13.7581 -22.12751,20.68785 l -1.20581,-66.976002 z"
         sodipodi:nodetypes="cccccccccccc" /></g><text
       xml:space="preserve"
       style="font-size:42.2363px;line-height:1;font-family:sans-serif;text-align:center;text-anchor:middle;stroke-width:0.264583"
       x="111.26202"
       y="321.97769"
       id="text17-3-4"
       transform="scale(1.0347491,0.96641785)"><tspan
         sodipodi:role="line"
         id="tspan17-5-2"
         style="font-style:normal;font-variant:normal;font-weight:normal;font-stretch:normal;font-size:42.2363px;line-height:1;font-family:'Tw Cen MT Condensed Extra Bold';-inkscape-font-specification:'Tw Cen MT Condensed Extra Bold, ';fill:#173f1c;fill-opacity:1;stroke:none;stroke-width:0.264583;stroke-opacity:1"
         x="111.26202"
         y="321.97769"
         dx="0">EVERY TREE</tspan></text><text
       xml:space="preserve"
       style="font-style:normal;font-variant:normal;font-weight:bold;font-stretch:normal;font-size:31.75px;line-height:1;font-family:'Miriam CLM';-inkscape-font-specification:'Miriam CLM Bold';text-align:center;text-anchor:middle;stroke-width:0.264583"
       x="111.09201"
       y="356.30173"
       id="text17-3-4-7-5"
       transform="scale(1.0347491,0.96641785)"><tspan
         sodipodi:role="line"
         id="tspan17-5-2-2-7"
         style="font-style:normal;font-variant:normal;font-weight:bold;font-stretch:normal;font-size:31.75px;line-height:1;font-family:'Miriam CLM';-inkscape-font-specification:'Miriam CLM Bold';fill:#173f1c;fill-opacity:1;stroke:none;stroke-width:0.264583;stroke-opacity:1"
         x="111.09201"
         y="356.30173"
         dx="0">EVERY TREE</tspan></text><path
       style="font-size:56.4444px;line-height:1;font-family:'Tw Cen MT Condensed';-inkscape-font-specification:'Tw Cen MT Condensed, ';text-align:center;text-anchor:middle;fill:#173f1c;stroke-width:0.264583"
       d="M 35.486098,274.41974 H 22.780596 v -35.11239 h 12.485016 v 4.02387 h -7.79969 v 11.10698 h 7.220914 v 3.99631 h -7.220914 v 12.09916 h 8.020176 z m 3.279727,-35.11239 h 4.575084 l 4.409719,26.56856 4.740447,-26.56856 h 4.519962 l -7.386279,35.11239 h -3.748261 z m 35.580918,35.11239 H 61.641241 v -35.11239 h 12.485016 v 4.02387 h -7.79969 v 11.10698 h 7.220915 v 3.99631 h -7.220915 v 12.09916 h 8.020176 z m 21.001287,0 h -4.905812 l -5.512149,-16.48133 h -0.413411 v 16.48133 h -4.740447 v -35.11239 h 6.559456 q 8.020176,0 8.020176,8.9848 0,4.07899 -1.185112,6.14605 -1.185111,2.06706 -3.858503,3.11436 z M 84.516658,254.71381 q 2.756075,-0.0551 3.968747,-1.29536 1.240234,-1.26779 1.240234,-4.57508 0,-3.16949 -1.129991,-4.51996 -1.10243,-1.35048 -3.803382,-1.35048 h -0.275608 z m 31.474362,-15.40646 -6.83506,20.14691 v 14.96548 h -4.74045 v -14.745 l -6.669698,-20.36739 h 4.685328 l 4.3546,15.76475 h 0.11024 l 4.40972,-15.76475 z m 28.30489,4.02387 h -5.37435 v 31.08852 h -4.74045 v -31.08852 h -5.34678 v -4.02387 h 15.46158 z m 20.31227,31.08852 h -4.90581 l -5.51215,-16.48133 h -0.41341 v 16.48133 h -4.74045 v -35.11239 h 6.55945 q 8.02018,0 8.02018,8.9848 0,4.07899 -1.18511,6.14605 -1.18511,2.06706 -3.85851,3.11436 z m -10.83137,-19.70593 q 2.75607,-0.0551 3.96874,-1.29536 1.24024,-1.26779 1.24024,-4.57508 0,-3.16949 -1.12999,-4.51996 -1.10243,-1.35048 -3.80339,-1.35048 h -0.2756 z m 28.69073,19.70593 h -12.7055 v -35.11239 h 12.48502 v 4.02387 h -7.79969 v 11.10698 h 7.22091 v 3.99631 h -7.22091 v 12.09916 h 8.02017 z m 18.24521,0 h -12.7055 v -35.11239 h 12.48502 v 4.02387 h -7.79969 v 11.10698 h 7.22091 v 3.99631 h -7.22091 v 12.09916 h 8.02017 z"
       id="text17-3-7"
       transform="scale(1.0347491,0.96641785)"
       aria-label="EVERY TREE" /><text
       xml:space="preserve"
       style="font-style:normal;font-variant:normal;font-weight:normal;font-stretch:normal;font-size:56.4444px;line-height:1;font-family:'Tw Cen MT Condensed';-inkscape-font-specification:'Tw Cen MT Condensed, ';text-align:center;text-anchor:middle;stroke-width:0.264583"
       x="110.63046"
       y="412.18506"
       id="text17-3-7-0"
       transform="scale(1.0347491,0.96641785)"><tspan
         sodipodi:role="line"
         id="tspan17-5-6-0"
         style="font-style:normal;font-variant:normal;font-weight:normal;font-stretch:normal;font-size:56.4444px;line-height:1;font-family:'Tw Cen MT Condensed';-inkscape-font-specification:'Tw Cen MT Condensed, ';fill:#173f1c;fill-opacity:1;stroke:none;stroke-width:0.264583;stroke-opacity:1"
         x="110.63046"
         y="412.18506"
         dx="0">EVERY TREE</tspan></text><rect
       style="fill:#4c3417;stroke-width:0.349999;stroke-linecap:round;stroke-linejoin:round;paint-order:markers stroke fill;fill-opacity:1"
       id="rect2"
       width="79.249329"
       height="19.548166"
       x="152.45779"
       y="425.91425" /></g></svg>
