<?xml version="1.0" encoding="UTF-8" standalone="no"?>
<!-- Created with Inkscape (http://www.inkscape.org/) -->

<svg
   width="19"
   height="19"
   viewBox="0 0 5.0270834 5.0270839"
   version="1.1"
   id="svg1"
   xml:space="preserve"
   sodipodi:docname="tree.svg"
   inkscape:version="1.4.2 (f4327f4, 2025-05-13)"
   xmlns:inkscape="http://www.inkscape.org/namespaces/inkscape"
   xmlns:sodipodi="http://sodipodi.sourceforge.net/DTD/sodipodi-0.dtd"
   xmlns="http://www.w3.org/2000/svg"
   xmlns:svg="http://www.w3.org/2000/svg"><defs
   id="defs1" /><sodipodi:namedview
   id="namedview1"
   pagecolor="#ffffff"
   bordercolor="#666666"
   borderopacity="1.0"
   inkscape:showpageshadow="2"
   inkscape:pageopacity="0.0"
   inkscape:pagecheckerboard="0"
   inkscape:deskcolor="#d1d1d1"
   inkscape:zoom="13.25"
   inkscape:cx="12.792453"
   inkscape:cy="22.150943"
   inkscape:window-width="1920"
   inkscape:window-height="1009"
   inkscape:window-x="-8"
   inkscape:window-y="-8"
   inkscape:window-maximized="1"
   inkscape:current-layer="svg1" />
     
     <path
   id="path12"
   fill="currentColor"
   d="M 2.5135407,-2.4422144e-8 2.5076507,1.9635125e-4 C 2.2473909,0.00716284 2.0071557,0.09106577 1.8195837,0.25056287 1.6694268,0.37824467 1.5558775,0.54886252 1.4724088,0.75168868 1.1278894,0.77171418 0.83804527,0.94768394 0.67005791,1.1956719 0.50406039,1.4407239 0.45290384,1.7607854 0.55911111,2.0539872 0.2466147,2.4346399 0.24888679,2.9486384 0.47820834,3.3154417 0.71460545,3.69356 1.2167784,3.9136522 1.7587103,3.7236864 c 0.1353537,0.093138 0.2860871,0.16573 0.4492852,0.2069696 -0.01361,0.1765174 -0.029326,0.3361069 -0.047128,0.4677438 -0.022073,0.1632222 -0.053767,0.290596 -0.066372,0.3200765 a 0.2213868,0.2213868 0 0 0 0.2323008,0.3067234 c 0.059255,-0.00774 0.1135012,-0.00859 0.1637691,-0.00334 a 0.2213868,0.2213868 0 0 0 0.045949,0 c 0.050263,-0.00526 0.1045159,-0.0044 0.1637693,0.00334 A 0.2213868,0.2213868 0 0 0 2.9325856,4.7184763 C 2.9192442,4.6872759 2.8879464,4.5622561 2.8658213,4.4003632 2.8478624,4.2689562 2.8319851,4.1089753 2.8183006,3.9308526 2.9817995,3.8896466 3.1328009,3.8169726 3.2683714,3.7236864 3.8103034,3.9136522 4.3124777,3.6935564 4.5488732,3.3154417 4.7781963,2.9486372 4.7804711,2.4346399 4.4679705,2.0539872 4.574178,1.7607854 4.5230164,1.4407239 4.3570241,1.1956719 4.1890367,0.94768648 3.8991871,0.77172045 3.5546729,0.75168868 3.4712015,0.54885998 3.3576535,0.37825227 3.2074979,0.25056287 3.0199295,0.09105562 2.7797063,0.0071603 2.5194318,1.9635125e-4 Z"
   style="stroke:none;stroke-width:0" /></svg>
