<?xml version="1.0" encoding="UTF-8" standalone="no"?>
<!-- Created with Inkscape (http://www.inkscape.org/) -->

<svg
   fill="currentColor"
   width="15"
   height="15"
   viewBox="0 0 3.96875 3.9687503"
   version="1.1"
   id="svg1"
   xml:space="preserve"
   sodipodi:docname="tree-ko.svg"
   inkscape:version="1.4.2 (f4327f4, 2025-05-13)"
   xmlns:inkscape="http://www.inkscape.org/namespaces/inkscape"
   xmlns:sodipodi="http://sodipodi.sourceforge.net/DTD/sodipodi-0.dtd"
   xmlns="http://www.w3.org/2000/svg"
   xmlns:svg="http://www.w3.org/2000/svg"><sodipodi:namedview
     id="namedview1"
     pagecolor="#ffffff"
     bordercolor="#666666"
     borderopacity="1.0"
     inkscape:showpageshadow="2"
     inkscape:pageopacity="0.0"
     inkscape:pagecheckerboard="0"
     inkscape:deskcolor="#d1d1d1"
     inkscape:zoom="53"
     inkscape:cx="7.5"
     inkscape:cy="7.5"
     inkscape:window-width="1920"
     inkscape:window-height="991"
     inkscape:window-x="-9"
     inkscape:window-y="-9"
     inkscape:window-maximized="1"
     inkscape:current-layer="svg1" /><defs
     id="defs1" /><path
     id="path12"
     style="baseline-shift:baseline;display:inline;overflow:visible;vector-effect:none;fill:#4c3417;fill-opacity:1;stroke-width:0;enable-background:accumulate;stop-color:#000000;stroke:none"
     d="M 1.984379,-3.1085669e-7 1.979679,1.3268888e-4 C 1.7742066,0.00563268 1.5846299,0.07185253 1.4365433,0.19777424 1.3179956,0.29857801 1.2282468,0.43334071 1.1623489,0.59347035 0.89035355,0.60928031 0.66154107,0.748206 0.52891636,0.94399055 0.39786267,1.1374571 0.35756676,1.3901005 0.44141657,1.621581 0.19470312,1.9221033 0.19650912,2.3278874 0.37755671,2.6174758 0.56419028,2.9159971 0.96061739,3.0897807 1.3884684,2.939804 1.5592241,3.0573028 1.7608516,3.1332596 1.984382,3.1332596 c 0.2235286,0 0.4251501,-0.07596 0.5959037,-0.1934556 C 3.0081368,3.0897807 3.4045639,2.9159941 3.5911964,2.6174758 3.7722451,2.3278864 3.7740431,1.9221033 3.5273265,1.621581 3.6111764,1.3901005 3.5708765,1.1374571 3.4398268,0.94399055 3.3072021,0.748208 3.0783946,0.60929531 2.8064032,0.59348035 2.7405033,0.43334871 2.6507646,0.29857501 2.5322178,0.19776524 2.3841341,0.07183553 2.1945386,0.00563068 1.989054,1.3268888e-4 Z M 1.996759,0.64358723 c 0.1524637,0 0.2925644,0.02781 0.4203041,0.0834398 0.1277407,0.0535699 0.2286975,0.12979871 0.3028694,0.22869648 0.07417,0.0968298 0.1112556,0.20500059 0.1112556,0.32449929 l -1e-5,2e-5 c 0,0.08035 -0.01545,0.1524626 -0.04636,0.2163345 -0.03091,0.06181 -0.06799,0.1143428 -0.1112586,0.1576127 -0.04121,0.04121 -0.09787,0.09168 -0.1699767,0.1514346 -0.07417,0.05975 -0.1297987,0.1091938 -0.1668846,0.1483417 -0.03709,0.03915 -0.06284,0.08447 -0.07726,0.1359817 -0.01442,0.05563 -0.04223,0.08344 -0.08344,0.08344 H 1.7989595 c -0.02267,0 -0.04224,-0.0082 -0.05872,-0.02472 -0.01648,-0.01648 -0.02472,-0.03605 -0.02472,-0.05872 0,-0.07211 0.01545,-0.1370117 0.04636,-0.1947006 0.03297,-0.05769 0.07108,-0.1071348 0.1143487,-0.1483437 0.04327,-0.04327 0.1009567,-0.09374 0.1730676,-0.1514326 0.07623,-0.05975 0.1328917,-0.1091958 0.1699777,-0.1483437 0.03709,-0.04121 0.05563,-0.0855 0.05563,-0.1328896 0,-0.05975 -0.02369,-0.1061048 -0.07108,-0.1390728 -0.04533,-0.03503 -0.1143458,-0.05254 -0.2070596,-0.05254 -0.07005,0 -0.1256806,0.0093 -0.1668866,0.02781 -0.03915,0.01648 -0.06799,0.03605 -0.08653,0.05872 -0.01854,0.02266 -0.03708,0.0515 -0.05563,0.08653 -0.01236,0.03091 -0.02575,0.0546 -0.04018,0.07108 -0.01442,0.01442 -0.03605,0.02163 -0.0649,0.02163 H 1.2055938 c -0.01854,0 -0.03502,-0.0062 -0.04945,-0.01854 -0.01236,-0.01236 -0.01854,-0.02884 -0.01854,-0.04945 0.0021,-0.100956 0.03812,-0.2039708 0.1081679,-0.3090476 C 1.3178816,0.90628064 1.4178084,0.81871784 1.5455481,0.748667 1.6753488,0.67861715 1.8257514,0.64358923 1.996759,0.64358923 Z M 1.7927785,2.3588224 h 0.3894011 c 0.02266,0 0.04223,0.0082 0.05872,0.02472 0.01648,0.01648 0.02472,0.03606 0.02472,0.05872 v 0.3121383 c 0,0.02267 -0.0082,0.04224 -0.02472,0.05872 -0.01648,0.01648 -0.03605,0.02472 -0.05872,0.02472 H 1.7927765 c -0.02266,0 -0.04223,-0.0082 -0.05872,-0.02472 -0.01648,-0.01648 -0.02472,-0.03605 -0.02472,-0.05872 V 2.4422622 c 0,-0.02267 0.0082,-0.04224 0.02472,-0.05872 0.01648,-0.01648 0.03605,-0.02472 0.05872,-0.02472 z" /><path
     id="path1"
     style="baseline-shift:baseline;display:inline;overflow:visible;vector-effect:none;fill:#4c3417;stroke-width:0;stroke-linecap:round;stroke-linejoin:round;enable-background:accumulate;stop-color:#000000;stroke:none"
     d="M 1.9286123,2.8378829 A 0.17478313,0.17478313 0 0 0 1.7505667,3.0006789 C 1.738249,3.180722 1.7233246,3.3436884 1.7058977,3.4725509 1.6884709,3.6014135 1.6635065,3.701989 1.6535548,3.7252637 a 0.17478313,0.17478313 0 0 0 0.1833424,0.2420158 c 0.046781,-0.00611 0.089608,-0.00673 0.1292942,-0.00258 a 0.17478313,0.17478313 0 0 0 0.036385,0 c 0.039683,-0.00415 0.082519,-0.00353 0.1292993,0.00258 A 0.17478313,0.17478313 0 0 0 2.3151979,3.7252637 C 2.3046654,3.7006311 2.2799867,3.6018317 2.262519,3.4740185 2.2450513,3.3462055 2.2300948,3.1841075 2.2177725,3.0032369 A 0.17478313,0.17478313 0 0 0 2.0471114,2.840384 Z" /></svg>
