<?xml version="1.0" encoding="UTF-8" standalone="no"?>
<!-- Created with Inkscape (http://www.inkscape.org/) -->

<svg
   fill="currentColor"
   width="15"
   height="15"
   viewBox="0 0 3.96875 3.9687503"
   version="1.1"
   id="svg1"
   xml:space="preserve"
   sodipodi:docname="tree-ok.svg"
   inkscape:version="1.4.2 (f4327f4, 2025-05-13)"
   xmlns:inkscape="http://www.inkscape.org/namespaces/inkscape"
   xmlns:sodipodi="http://sodipodi.sourceforge.net/DTD/sodipodi-0.dtd"
   xmlns="http://www.w3.org/2000/svg"
   xmlns:svg="http://www.w3.org/2000/svg"><sodipodi:namedview
     id="namedview1"
     pagecolor="#ffffff"
     bordercolor="#666666"
     borderopacity="1.0"
     inkscape:showpageshadow="2"
     inkscape:pageopacity="0.0"
     inkscape:pagecheckerboard="0"
     inkscape:deskcolor="#d1d1d1"
     inkscape:zoom="53"
     inkscape:cx="7.5"
     inkscape:cy="7.5"
     inkscape:window-width="1920"
     inkscape:window-height="991"
     inkscape:window-x="-9"
     inkscape:window-y="-9"
     inkscape:window-maximized="1"
     inkscape:current-layer="svg1" /><defs
     id="defs1" /><path
     id="path12"
     style="baseline-shift:baseline;display:inline;overflow:visible;vector-effect:none;fill:#79a33c;fill-opacity:1;stroke-width:0;enable-background:accumulate;stop-color:#000000;stroke:none"
     d="M 1.984379,-3.1085669e-7 1.979679,1.3268888e-4 C 1.7742066,0.00563268 1.5846299,0.07185253 1.4365433,0.19777424 1.3179956,0.29857801 1.2282468,0.43334071 1.1623489,0.59347035 0.89035355,0.60928031 0.66154107,0.748206 0.52891636,0.94399055 0.39786267,1.1374571 0.35756676,1.3901005 0.44141657,1.621581 0.19470312,1.9221033 0.19650912,2.3278874 0.37755671,2.6174758 0.56419028,2.9159971 0.96061739,3.0897807 1.3884684,2.939804 1.5592241,3.0573028 1.7608516,3.1332596 1.984382,3.1332596 c 0.2235286,0 0.4251501,-0.07596 0.5959037,-0.1934556 C 3.0081368,3.0897807 3.4045639,2.9159941 3.5911964,2.6174758 3.7722451,2.3278864 3.7740431,1.9221033 3.5273265,1.621581 3.6111764,1.3901005 3.5708765,1.1374571 3.4398268,0.94399055 3.3072021,0.748208 3.0783946,0.60929531 2.8064032,0.59348035 2.7405033,0.43334871 2.6507646,0.29857501 2.5322178,0.19776524 2.3841341,0.07183553 2.1945386,0.00563068 1.989054,1.3268888e-4 Z" /><path
     id="path1"
     style="baseline-shift:baseline;display:inline;overflow:visible;vector-effect:none;fill:#79a33c;stroke-width:0;stroke-linecap:round;stroke-linejoin:round;enable-background:accumulate;stop-color:#000000;fill-opacity:1;stroke:none"
     d="M 1.9286123,2.8378829 A 0.17478313,0.17478313 0 0 0 1.7505667,3.0006789 C 1.738249,3.180722 1.7233246,3.3436884 1.7058977,3.4725509 1.6884709,3.6014135 1.6635065,3.701989 1.6535548,3.7252637 a 0.17478313,0.17478313 0 0 0 0.1833424,0.2420158 c 0.046781,-0.00611 0.089608,-0.00673 0.1292942,-0.00258 a 0.17478313,0.17478313 0 0 0 0.036385,0 c 0.039683,-0.00415 0.082519,-0.00353 0.1292993,0.00258 A 0.17478313,0.17478313 0 0 0 2.3151979,3.7252637 C 2.3046654,3.7006311 2.2799867,3.6018317 2.262519,3.4740185 2.2450513,3.3462055 2.2300948,3.1841075 2.2177725,3.0032369 A 0.17478313,0.17478313 0 0 0 2.0471114,2.840384 Z" /></svg>
