<?xml version="1.0" encoding="UTF-8" standalone="no"?>
<!-- Created with Inkscape (http://www.inkscape.org/) -->

<svg
   width="50"
   height="50"
   viewBox="0 0 13.229167 13.229168"
   version="1.1"
   id="svg1"
   xml:space="preserve"
   sodipodi:docname="tree.svg"
   inkscape:version="1.4.2 (f4327f4, 2025-05-13)"
   xmlns:inkscape="http://www.inkscape.org/namespaces/inkscape"
   xmlns:sodipodi="http://sodipodi.sourceforge.net/DTD/sodipodi-0.dtd"
   xmlns="http://www.w3.org/2000/svg"
   xmlns:svg="http://www.w3.org/2000/svg"><sodipodi:namedview
   id="namedview1"
   pagecolor="#ffffff"
   bordercolor="#666666"
   borderopacity="1.0"
   inkscape:showpageshadow="2"
   inkscape:pageopacity="0.0"
   inkscape:pagecheckerboard="0"
   inkscape:deskcolor="#d1d1d1"
   inkscape:zoom="6.625"
   inkscape:cx="13.660377"
   inkscape:cy="43.09434"
   inkscape:window-width="1920"
   inkscape:window-height="991"
   inkscape:window-x="-9"
   inkscape:window-y="-9"
   inkscape:window-maximized="1"
   inkscape:current-layer="svg1" /><defs
   id="defs1" />
     
     <path
   fill="currentColor"
   id="path12"
   d="M 6.6145965,-3.1085669e-7 6.59893,4.4302153e-4 C 5.9140219,0.01877632 5.2820999,0.23950912 4.788478,0.6592481 4.393319,0.99526061 4.0941564,1.4444695 3.8744968,1.9782349 2.9678458,2.0309348 2.2051376,2.4940203 1.7630553,3.1466354 1.3262097,3.7915238 1.1918901,4.6336683 1.4713894,5.4052699 0.64901135,6.4070109 0.65503136,7.7596239 1.2585232,8.7249184 1.8806351,9.7199895 3.2020585,10.299268 4.6282283,9.799346 c 0.5691856,0.391662 1.2412771,0.644852 1.9863782,0.644852 0.7450955,0 1.417167,-0.2532 1.9863455,-0.644852 1.42617,0.499922 2.747594,-0.079366 3.369702,-1.0744276 0.603496,-0.9652975 0.609489,-2.3179075 -0.2129,-3.3196485 0.2795,-0.7716016 0.145167,-1.6137461 -0.291665,-2.2586345 C 11.024007,2.494027 10.261315,2.0309848 9.354677,1.9782683 9.1350105,1.4444962 8.8358815,0.99525061 8.440726,0.6592181 7.9471135,0.23945245 7.3151285,0.01876965 6.63018,4.4302153e-4 Z" /><path
   fill="currentColor"
   id="path1"
   d="m 6.428708,9.459609 a 0.58261036,0.58261036 0 0 0 -0.5934856,0.542653 c -0.04106,0.600144 -0.090807,1.143365 -0.1488966,1.572906 -0.058089,0.429542 -0.141304,0.764794 -0.1744763,0.842376 a 0.58261036,0.58261036 0 0 0 0.6111415,0.806719 c 0.1559365,-0.02036 0.298693,-0.02243 0.4309805,-0.0086 a 0.58261036,0.58261036 0 0 0 0.121283,0 c 0.132277,-0.01383 0.2750635,-0.01176 0.430998,0.0086 A 0.58261036,0.58261036 0 0 0 7.717326,12.417544 C 7.682216,12.335436 7.5999555,12.006104 7.54173,11.58006 7.4835045,11.154017 7.4336495,10.613691 7.392575,10.010789 A 0.58261036,0.58261036 0 0 0 6.8237045,9.467946 Z" /></svg>
